<?xml version="1.0" encoding="UTF-8" standalone="no"?>
<!-- Created with Inkscape (http://www.inkscape.org/) -->

<svg
   xmlns:osb="http://www.openswatchbook.org/uri/2009/osb"
   xmlns:dc="http://purl.org/dc/elements/1.1/"
   xmlns:cc="http://creativecommons.org/ns#"
   xmlns:rdf="http://www.w3.org/1999/02/22-rdf-syntax-ns#"
   xmlns:svg="http://www.w3.org/2000/svg"
   xmlns="http://www.w3.org/2000/svg"
   xmlns:sodipodi="http://sodipodi.sourceforge.net/DTD/sodipodi-0.dtd"
   xmlns:inkscape="http://www.inkscape.org/namespaces/inkscape"
   width="64"
   height="64"
   id="svg4700"
   version="1.1"
   inkscape:version="0.91 r13725"
   viewBox="0 0 64 64"
   sodipodi:docname="cylindricity.svg">
  <defs
     id="defs4702">
    <linearGradient
       id="linearGradient4142"
       osb:paint="gradient">
      <stop
         style="stop-color:#ff7500;stop-opacity:1;"
         offset="0"
         id="stop4144" />
      <stop
         style="stop-color:#ff7500;stop-opacity:0;"
         offset="1"
         id="stop4146" />
    </linearGradient>
  </defs>
  <sodipodi:namedview
     id="base"
     pagecolor="#ffffff"
     bordercolor="#666666"
     borderopacity="1.0"
     inkscape:pageopacity="0.0"
     inkscape:pageshadow="2"
     inkscape:zoom="6.19424"
     inkscape:cx="-8.4508343"
     inkscape:cy="27.13654"
     inkscape:current-layer="layer4"
     showgrid="true"
     inkscape:document-units="px"
     inkscape:grid-bbox="true"
     inkscape:window-width="1440"
     inkscape:window-height="799"
     inkscape:window-x="0"
     inkscape:window-y="1"
     inkscape:window-maximized="1" />
  <metadata
     id="metadata4705">
    <rdf:RDF>
      <cc:Work
         rdf:about="">
        <dc:format>image/svg+xml</dc:format>
        <dc:type
           rdf:resource="http://purl.org/dc/dcmitype/StillImage" />
        <dc:title />
      </cc:Work>
    </rdf:RDF>
  </metadata>
  <g
     inkscape:groupmode="layer"
     id="layer5"
     inkscape:label="Layer 3" />
  <g
     inkscape:groupmode="layer"
     id="layer4"
     inkscape:label="Layer 2">
    <path
       style="font-style:normal;font-variant:normal;font-weight:normal;font-stretch:normal;font-size:50px;line-height:120.00000477%;font-family:sans-serif;-inkscape-font-specification:'sans-serif, Normal';text-align:center;letter-spacing:0px;word-spacing:0px;writing-mode:lr-tb;text-anchor:middle;fill:#ff6600;fill-opacity:1;stroke:none;stroke-width:1px;stroke-linecap:butt;stroke-linejoin:miter;stroke-opacity:1"
       d="M 28.886719 23.052734 L 18.902344 40.361328 L 19.902344 40.947266 L 24.785156 32.451172 C 24.964193 34.420573 25.754557 36.041016 27.154297 37.310547 C 28.554036 38.580078 30.165365 39.214844 31.988281 39.214844 C 33.0625 39.214844 34.127604 38.961589 35.185547 38.457031 L 34.087891 40.361328 L 35.087891 40.947266 L 45.097656 23.662109 L 44.097656 23.052734 L 39.189453 31.548828 C 39.026693 29.579427 38.238281 27.968099 36.822266 26.714844 C 35.422526 25.445312 33.811198 24.810547 31.988281 24.810547 C 30.914063 24.810547 29.847005 25.061849 28.789062 25.566406 L 29.888672 23.662109 L 28.886719 23.052734 z M 31.988281 26.005859 C 33.632161 26.005859 35.039062 26.600911 36.210938 27.789062 C 37.399089 28.960937 37.994141 30.367839 37.994141 32.011719 C 37.994141 33.655599 37.399089 35.064453 36.210938 36.236328 C 35.039062 37.408203 33.632161 37.994141 31.988281 37.994141 C 30.344401 37.994141 28.928385 37.408203 27.740234 36.236328 C 26.568359 35.064453 25.982422 33.655599 25.982422 32.011719 C 25.982422 30.367839 26.568359 28.960938 27.740234 27.789062 C 28.928385 26.600911 30.344401 26.005859 31.988281 26.005859 z "
       id="text3374" />
  </g>
</svg>
